<svg xmlns="http://www.w3.org/2000/svg" viewBox="0 0 512 512" role="img" aria-label="Arca">
  <defs>
    <radialGradient id="glow" cx="50%" cy="42%" r="62%">
      <stop offset="0" stop-color="#2b2116"/>
      <stop offset="1" stop-color="#090b0a"/>
    </radialGradient>
  </defs>
  <rect width="512" height="512" rx="112" fill="url(#glow)"/>
  <rect x="58" y="58" width="396" height="396" rx="96" fill="none" stroke="#4a3520" stroke-width="10"/>
  <path d="M256 112c10 76 68 134 144 144-76 10-134 68-144 144-10-76-68-134-144-144 76-10 134-68 144-144Z" fill="#d89c56"/>
  <path d="M367 112c4 30 27 53 57 57-30 4-53 27-57 57-4-30-27-53-57-57 30-4 53-27 57-57Z" fill="#e06b52"/>
  <circle cx="137" cy="376" r="24" fill="#9caf76"/>
</svg>
