<svg width="184" height="48" viewBox="0 0 184 48" fill="none" xmlns="http://www.w3.org/2000/svg" role="img" aria-labelledby="title desc">
  <title id="title">Arca Finance</title>
  <desc id="desc">Logo horizontal de Arca Finance.</desc>
  <rect x="1" y="1" width="46" height="46" rx="14" fill="#0F3554"/>
  <path d="M12.5 33L20.4 15H27.6L35.5 33H29.2L28 30H19.9L18.7 33H12.5ZM21.5 25.8H26.5L24 19.7L21.5 25.8Z" fill="#FFFAF2"/>
  <path d="M13 37H35" stroke="#A27734" stroke-width="3" stroke-linecap="round"/>
  <path d="M62.8 32L71.6 12H78.4L87.2 32H81.3L79.8 28.3H70.2L68.7 32H62.8ZM71.8 24.1H78.2L75 16.3L71.8 24.1ZM94.1 32V12H102.9C105.2 12 107 12.6 108.3 13.8C109.6 15 110.2 16.6 110.2 18.6C110.2 19.9 109.9 21 109.2 22C108.6 22.9 107.7 23.6 106.6 24.1L111.1 32H105L101.2 25H99.5V32H94.1ZM99.5 20.9H102.5C103.2 20.9 103.8 20.7 104.2 20.3C104.6 19.9 104.8 19.4 104.8 18.7C104.8 18 104.6 17.5 104.2 17.1C103.8 16.7 103.2 16.5 102.5 16.5H99.5V20.9ZM128.4 32.4C125.3 32.4 122.8 31.4 120.9 29.5C119 27.6 118.1 25.1 118.1 22C118.1 18.9 119.1 16.4 121 14.5C122.9 12.6 125.4 11.6 128.5 11.6C130.7 11.6 132.6 12.1 134.1 13.1C135.7 14.1 136.8 15.5 137.5 17.3L132.6 19.2C132.3 18.3 131.8 17.6 131.1 17.1C130.4 16.6 129.5 16.4 128.5 16.4C127 16.4 125.8 16.9 124.9 17.9C124 18.9 123.6 20.3 123.6 22C123.6 23.7 124 25.1 124.9 26.1C125.8 27.1 127 27.6 128.6 27.6C129.6 27.6 130.5 27.4 131.2 26.9C131.9 26.4 132.5 25.7 132.8 24.8L137.7 26.6C136.9 28.5 135.8 29.9 134.2 30.9C132.6 31.9 130.7 32.4 128.4 32.4ZM144.5 32L153.3 12H160.1L168.9 32H163L161.5 28.3H151.9L150.4 32H144.5ZM153.5 24.1H159.9L156.7 16.3L153.5 24.1Z" fill="#101010"/>
  <path d="M62.8 38H169" stroke="#A27734" stroke-width="2" stroke-linecap="round" stroke-opacity="0.7"/>
</svg>
